<?xml version="1.0" encoding="utf-8"?>
<!-- Generator: Adobe Illustrator 27.1.1, SVG Export Plug-In . SVG Version: 6.00 Build 0)  -->
<svg version="1.1" id="Note" xmlns="http://www.w3.org/2000/svg" xmlns:xlink="http://www.w3.org/1999/xlink" x="0px" y="0px"
	 viewBox="0 0 48 48" style="enable-background:new 0 0 48 48;" xml:space="preserve">
<style type="text/css">
	.st0{fill-opacity:0;}
</style>
<path d="M35.5,23.5h-4v4h-4v4h-4v4h-4v5h5v-4h3v4h5v-4h3v4h5v-5h-4v-3h4v-5h-4v-3h4v-5h-5V23.5z M35.5,31.5h-3v-3h3V31.5z
	 M28.5,28.5h3v3h-3V28.5z M31.5,35.5h-3v-3h3V35.5z M23.5,39.5h-3v-3h3V39.5z M24.5,35.5v-3h3v3H24.5z M31.5,39.5h-3v-3h3V39.5z
	 M39.5,36.5v3h-3v-3H39.5z M35.5,35.5h-3v-3h3V35.5z M39.5,28.5v3h-3v-3H39.5z M35.5,27.5h-3v-3h3V27.5z M36.5,20.5h3v3h-3V20.5z
	 M7.5,7.5v33h5v-4h4v-4h4v-4h4v-4h4v-4h4v-4h4v-4h4v-5H7.5z M39.5,11.5h-4v4h-4v4h-4v4h-4v4h-4v4h-4v4h-4v4h-3v-31h31V11.5z"/>
<rect class="st0" width="48" height="48"/>
</svg>
