<?xml version="1.0" encoding="utf-8"?>
<!-- Generator: Adobe Illustrator 27.1.1, SVG Export Plug-In . SVG Version: 6.00 Build 0)  -->
<svg version="1.1" id="Art_3.0" xmlns="http://www.w3.org/2000/svg" xmlns:xlink="http://www.w3.org/1999/xlink" x="0px" y="0px"
	 viewBox="0 0 48 48" style="enable-background:new 0 0 48 48;" xml:space="preserve">
<style type="text/css">
	.st0{fill-opacity:0;}
</style>
<g>
	<path d="M4.5,37.49989h31v-16h-31V37.49989z M5.5,22.49989h29v14h-1v-2h-1v2h-1v-2h-1v2h-1.00049v-2h-1v2h-1v-2h-1v2h-1.00049v-2
		h-1v2h-1v-2h-1v2h-1.00049v-2h-1v2h-1v-2h-1v2h-1.00049v-2h-1v2h-1v-2h-1v2h-1.00049v-2h-1v2h-1v-2h-1v2H9.49706v-2h-1v2h-1v-2h-1
		v2H5.49999v-14H5.5z"/>
	<polygon points="12.5,9.46961 12.5,19.46961 13.5,19.46961 13.5,10.46961 42.5,10.46961 42.5,24.46961 41.5,24.46961 
		41.5,22.46961 40.5,22.46961 40.5,24.46961 39.5,24.46961 39.5,22.46961 38.5,22.46961 38.5,24.46961 37.5,24.46961 37.5,25.46961 
		38.5,25.46961 39.5,25.46961 43.5,25.46961 43.5,9.46961 	"/>
	<path d="M12.5,24.49989H6.49707v7H12.5V24.49989z M11.5,30.49989H7.49707v-5H11.5V30.49989z"/>
	<path d="M19.49854,24.49989H13.5v7h5.99854V24.49989z M18.49854,30.49989H14.5v-5h3.99854V30.49989z"/>
	<path d="M26.5,24.49989h-6.00146v7H26.5V24.49989z M25.5,30.49989h-4.00146v-5H25.5V30.49989z"/>
	<path d="M33.5,24.49989h-6v7h6V24.49989z M32.5,30.49989h-4v-5h4V30.49989z"/>
	<path d="M14.49854,12.46961v7h6.00293v-7C20.50147,12.46961,14.49854,12.46961,14.49854,12.46961z M19.50147,18.46961h-4.00293v-5
		h4.00293V18.46961z"/>
	<path d="M21.50146,12.46961v7H27.5v-7C27.5,12.46961,21.50146,12.46961,21.50146,12.46961z M26.5,18.46961h-3.99854v-5H26.5
		V18.46961z"/>
	<path d="M28.5,12.46961v7h6.00146v-7H28.5z M33.50146,18.46961H29.5v-5h4.00146V18.46961z"/>
	<path d="M41.50146,12.46961h-6v7h6V12.46961z M40.50146,18.46961h-4v-5h4V18.46961z"/>
</g>
<rect class="st0" width="48" height="48"/>
</svg>
